<?xml version="1.0" standalone="no"?>
<!DOCTYPE svg PUBLIC "-//W3C//DTD SVG 20010904//EN"
 "http://www.w3.org/TR/2001/REC-SVG-20010904/DTD/svg10.dtd">
<svg version="1.0" xmlns="http://www.w3.org/2000/svg"
 width="684pt" height="684pt" viewBox="514 147 684 684"
 preserveAspectRatio="xMidYMid meet">

<g transform="translate(0.000000,1024.000000) scale(0.100000,-0.100000)"
fill="#B91C1C" stroke="none">
<path d="M5846 8050 c-89 -27 -141 -104 -134 -196 3 -32 13 -66 24 -82 30 -40
104 -74 179 -80 62 -5 65 -6 65 -31 0 -14 -14 -258 -30 -541 -16 -283 -30
-534 -30 -557 0 -28 -4 -43 -12 -43 -26 -1 -120 -56 -160 -95 -22 -22 -51 -62
-64 -90 -24 -50 -24 -51 -24 -465 l0 -415 37 55 c99 149 277 331 446 457 385
286 804 416 1292 400 288 -10 576 -71 754 -162 29 -14 55 -24 58 -22 19 20
-73 118 -152 162 -93 52 -314 108 -464 117 -40 3 -45 6 -58 38 -39 102 -83
159 -147 193 -40 21 -54 22 -441 27 -220 3 -420 3 -445 0 -42 -5 -47 -8 -68
-50 -12 -25 -27 -64 -32 -87 l-11 -43 -124 0 -125 0 0 33 c0 17 9 174 20 347
10 173 24 405 30 515 6 110 13 210 16 223 l4 22 899 0 899 0 18 -52 c9 -29 46
-132 81 -228 135 -366 247 -672 314 -857 38 -106 75 -208 83 -228 14 -34 14
-37 -35 -140 -27 -58 -49 -109 -49 -113 0 -4 24 -23 53 -42 246 -164 480 -402
627 -639 268 -432 364 -960 255 -1408 -26 -109 -23 -118 35 -107 47 8 44 5 70
76 135 368 432 624 791 683 109 17 308 20 428 5 46 -6 85 -10 86 -8 2 2 7 36
10 75 l8 73 -34 14 c-66 27 -189 46 -349 53 -141 5 -160 8 -155 22 4 9 26 88
50 176 24 88 78 283 120 434 108 388 109 392 95 469 -14 84 -48 148 -103 199
-93 86 -169 107 -444 125 l-193 12 0 408 0 407 -22 15 c-12 9 -35 16 -50 16
l-28 0 0 158 c0 231 24 304 118 359 l42 25 0 75 0 75 -37 -7 c-124 -23 -227
-119 -273 -256 -20 -59 -22 -79 -18 -246 l5 -183 -25 0 c-41 0 -92 -30 -99
-59 -4 -14 -8 -196 -8 -403 l0 -378 -200 1 c-110 1 -258 4 -329 8 l-130 6 -34
95 c-218 608 -462 1303 -462 1313 0 3 19 8 43 12 23 3 58 11 77 17 136 41 147
234 16 306 -29 16 -121 17 -1276 19 -685 1 -1258 -2 -1274 -7z m4459 -2155
c30 -29 31 -45 6 -76 l-19 -24 -391 -3 c-264 -2 -398 1 -411 8 -16 8 -20 21
-20 59 0 26 3 51 7 54 3 4 186 7 405 7 l399 0 24 -25z m-55 -315 c24 -24 26
-57 4 -88 -15 -22 -16 -22 -334 -22 -305 0 -320 1 -330 19 -11 22 -14 94 -3
104 3 4 150 7 325 7 305 0 319 -1 338 -20z m-122 -316 c28 -20 29 -67 1 -95
-20 -20 -29 -20 -226 -17 -175 3 -206 5 -217 19 -12 17 -13 79 -1 98 4 7 76
11 213 11 172 0 211 -3 230 -16z"/>
<path d="M7253 6183 l-52 -4 -3 -92 -3 -91 -80 -12 c-44 -6 -115 -21 -158 -33
-43 -12 -82 -19 -86 -16 -4 2 -23 38 -41 80 -29 66 -36 75 -54 70 -64 -19
-233 -92 -306 -134 -134 -76 -150 -86 -150 -94 0 -4 22 -43 50 -86 l49 -79
-52 -33 c-29 -18 -84 -64 -124 -102 l-72 -69 -85 50 -85 51 -64 -82 c-87 -112
-118 -159 -177 -267 -27 -51 -50 -94 -50 -95 0 -1 36 -25 80 -54 44 -28 80
-55 80 -60 0 -5 -9 -31 -21 -58 -11 -26 -31 -88 -43 -138 l-23 -90 -74 4 c-41
3 -87 5 -104 5 l-30 1 -12 -90 c-20 -153 -10 -464 15 -486 7 -6 136 5 179 16
19 4 22 -2 38 -73 9 -42 35 -126 57 -185 22 -59 39 -109 37 -111 -2 -2 -43
-22 -91 -44 l-88 -41 35 -83 c19 -46 56 -119 82 -163 45 -78 168 -245 181
-245 3 0 46 23 95 51 l89 50 78 -75 c44 -42 102 -92 129 -111 l50 -36 -60 -83
c-32 -46 -59 -86 -59 -89 0 -8 180 -122 245 -154 54 -28 246 -103 260 -103 4
0 22 35 42 78 19 42 36 78 38 80 1 1 44 -7 96 -17 52 -11 120 -23 152 -26 l57
-7 0 -88 0 -88 53 -7 c69 -10 326 -10 405 -1 l62 8 0 87 0 88 98 16 c55 9 105
17 112 19 8 2 27 -26 48 -67 18 -38 35 -71 36 -73 6 -5 182 61 241 90 33 17
95 51 137 76 l77 45 -65 79 c-36 44 -64 80 -62 82 37 23 99 75 160 134 l77 74
92 -66 c51 -36 97 -66 103 -65 34 1 216 265 286 412 l48 102 -22 12 c-12 6
-51 22 -87 34 -35 12 -67 24 -71 28 -4 4 6 42 22 86 17 44 38 120 48 169 l17
89 97 -6 98 -5 8 26 c10 36 9 439 -1 476 -8 28 -10 28 -55 22 -26 -3 -70 -9
-98 -12 l-51 -6 -13 83 c-6 46 -23 119 -37 162 -13 43 -23 80 -21 82 2 1 42
19 91 40 48 21 87 39 87 42 0 14 -66 154 -101 215 -45 79 -161 248 -169 248
-3 0 -40 -20 -82 -44 l-77 -44 -42 55 c-24 30 -73 83 -111 118 l-69 64 56 77
c30 42 55 80 55 83 0 29 -411 281 -457 281 -5 0 -27 -38 -50 -84 l-42 -85 -38
19 c-69 32 -207 72 -282 80 -2 0 -2 39 0 88 l4 87 -49 12 c-101 25 -287 36
-433 26z m252 -803 c120 -14 192 -34 302 -85 211 -98 347 -234 448 -447 58
-123 85 -234 92 -383 21 -449 -249 -835 -667 -956 -107 -30 -331 -38 -455 -14
-193 36 -353 121 -490 260 -439 445 -357 1187 167 1499 188 112 378 151 603
126z"/>
<path d="M10468 4460 c-3 -28 -8 -53 -11 -56 -6 -7 -139 -36 -141 -32 -44 98
-46 101 -77 94 -35 -7 -184 -76 -213 -98 -19 -15 -18 -17 14 -73 l34 -59 -44
-38 c-23 -21 -48 -38 -55 -38 -6 0 -29 13 -51 30 -21 16 -44 30 -50 30 -26 0
-174 -191 -174 -225 0 -7 6 -15 14 -18 8 -3 32 -17 54 -31 l39 -25 -18 -53
-18 -53 -81 0 c-89 0 -100 -6 -100 -61 0 -17 -6 -36 -13 -42 -7 -7 -65 -13
-132 -14 l-118 -3 -36 -90 c-20 -49 -49 -112 -64 -139 -15 -27 -27 -50 -27
-52 0 -2 130 -1 288 2 l288 7 17 -63 c10 -35 14 -67 10 -71 -4 -4 -41 -19 -81
-32 -40 -14 -75 -27 -77 -29 -13 -12 106 -217 143 -245 24 -20 35 -16 100 31
l60 44 45 -46 46 -47 -40 -53 c-34 -45 -39 -55 -28 -69 36 -43 241 -159 261
-147 5 3 22 33 39 67 17 34 32 63 33 64 1 1 32 -9 69 -22 37 -14 77 -25 89
-25 19 0 20 -4 13 -64 l-6 -64 68 -7 c65 -6 270 9 282 21 3 3 6 33 6 66 l0 61
50 18 c28 9 57 18 66 18 9 1 30 -21 47 -49 18 -28 39 -50 48 -50 39 0 264 149
264 174 0 7 -16 27 -35 46 -19 19 -35 38 -35 43 0 5 12 24 28 41 15 17 34 42
43 56 l16 24 58 -24 57 -23 19 24 c27 36 91 189 93 223 1 26 -4 30 -49 46 -54
18 -54 18 -41 97 l8 52 59 12 c68 13 65 5 44 139 -23 142 -17 133 -84 126
l-57 -7 -18 58 c-10 32 -21 63 -23 69 -2 6 16 23 41 38 25 15 46 32 46 39 0
15 -79 144 -123 202 -17 22 -32 41 -33 43 -1 2 -21 -10 -44 -27 l-42 -30 -49
37 c-27 20 -49 42 -49 50 0 7 9 31 20 53 12 22 18 44 15 50 -12 18 -211 109
-240 109 -1 0 -12 -22 -25 -50 -13 -27 -26 -50 -29 -50 -3 1 -31 7 -61 14
l-55 12 -5 55 -5 54 -136 3 -136 3 -5 -51z m217 -350 c104 -15 238 -83 304
-156 191 -208 189 -525 -3 -718 -104 -105 -226 -156 -371 -156 -151 1 -260 45
-365 150 -103 103 -150 217 -150 365 0 221 128 410 329 486 97 37 154 43 256
29z"/>
</g>
</svg>
