<?xml version="1.0" standalone="no"?>
<!DOCTYPE svg PUBLIC "-//W3C//DTD SVG 20010904//EN"
 "http://www.w3.org/TR/2001/REC-SVG-20010904/DTD/svg10.dtd">
<svg version="1.0" xmlns="http://www.w3.org/2000/svg"
 width="1774.000000pt" height="503.000000pt" viewBox="0 170 1774.000000 503.000000"
 preserveAspectRatio="xMidYMid meet">

<defs>
<!-- Bounds the red overlay copy of the trailing "R" to just its integrated tire
     that path is a single continuous outline (letter + tire merged), so isolating the
     tire visually needs a clip circle rather than splitting the path data. -->
<clipPath id="tire-r-clip">
<circle cx="1558" cy="568" r="98"/>
</clipPath>
</defs>

<g transform="translate(0.000000,887.000000) scale(0.100000,-0.100000)"
fill="#000000" stroke="none">
<path fill="#B91C1C" d="M10900 6913 c-56 -21 -88 -96 -70 -162 13 -49 47 -77 103 -86 23 -4
53 -14 66 -22 l24 -15 -7 -187 c-10 -261 -42 -787 -50 -799 -3 -5 -30 -22 -61
-36 -105 -52 -151 -140 -155 -296 -5 -217 1 -660 9 -660 5 0 27 30 49 68 109
184 272 362 443 485 114 81 339 195 469 236 188 59 304 75 520 75 203 0 300
-13 459 -63 34 -10 61 -17 61 -14 0 2 -15 22 -32 45 -59 73 -123 98 -320 127
l-113 16 -20 42 c-26 53 -60 89 -110 116 -38 21 -55 22 -357 25 -273 3 -321 1
-347 -13 -35 -17 -46 -49 -37 -100 l7 -35 -116 0 c-102 0 -117 2 -135 20 -24
24 -25 67 -10 318 6 92 14 250 19 352 5 102 12 193 16 203 19 47 18 47 769 47
l705 0 25 -22 c18 -17 78 -167 230 -574 113 -302 206 -556 206 -564 0 -21 -48
-97 -71 -114 -21 -14 -19 -16 52 -62 322 -205 549 -493 678 -859 103 -290 118
-606 45 -943 -13 -63 -24 -118 -24 -124 0 -6 14 -8 38 -4 74 13 131 38 162 69
64 65 319 608 444 944 121 325 256 803 256 906 0 99 -74 198 -176 237 -41 15
-99 23 -232 31 -97 7 -178 13 -180 14 -2 2 -4 127 -5 280 l-2 277 -32 29 -33
29 0 152 c0 129 3 160 19 195 17 37 78 94 114 106 16 5 14 124 -2 140 -8 8
-22 5 -56 -11 -69 -33 -134 -99 -166 -167 -28 -59 -29 -64 -29 -233 l0 -173
-35 -33 -35 -33 0 -277 0 -276 -302 2 -303 3 -26 65 c-66 167 -379 1019 -379
1033 0 12 9 17 33 17 117 0 176 135 97 224 l-28 31 -1024 2 c-563 1 -1030 -1
-1038 -4z m3664 -1659 c24 -23 20 -70 -6 -88 -19 -14 -69 -16 -345 -16 -319 0
-322 0 -343 22 -24 26 -25 46 -4 76 15 22 15 22 349 22 290 0 336 -2 349 -16z
m-56 -230 c25 -18 29 -60 8 -90 -14 -18 -28 -19 -269 -19 -237 0 -256 1 -276
19 -26 24 -27 60 -1 86 19 19 33 20 268 20 208 0 251 -2 270 -16z m-68 -244
c24 -24 26 -57 3 -82 -14 -16 -34 -18 -196 -18 -154 0 -183 2 -199 17 -22 20
-23 61 -1 85 14 16 34 18 195 18 165 0 179 -1 198 -20z"/>
<path fill="#B91C1C" d="M12080 5354 c-8 -1 -41 -6 -74 -9 l-59 -7 7 -63 6 -64 -42 -11 c-24
-6 -60 -16 -81 -21 -21 -6 -44 -12 -52 -15 -10 -4 -19 11 -30 50 -9 31 -19 57
-23 60 -19 11 -310 -135 -377 -189 l-25 -20 30 -45 c16 -25 30 -48 30 -51 0
-4 -30 -33 -66 -65 l-66 -58 -42 48 -42 49 -46 -52 c-59 -65 -144 -179 -187
-250 -36 -59 -37 -56 34 -93 22 -11 41 -22 43 -23 2 -2 -15 -39 -37 -83 l-41
-81 -57 20 c-31 10 -57 18 -59 17 -14 -17 -76 -275 -89 -375 l-7 -52 59 -3 58
-3 3 -92 3 -93 -29 0 c-16 0 -44 -3 -61 -6 -30 -6 -31 -8 -25 -48 18 -134 73
-347 94 -370 6 -5 30 0 60 12 l52 22 39 -86 c22 -48 39 -88 37 -89 -2 -1 -22
-14 -45 -29 -24 -14 -43 -32 -43 -39 0 -21 116 -186 187 -265 l66 -73 43 42
42 42 49 -41 c26 -22 62 -52 78 -65 l30 -25 -33 -48 c-28 -38 -31 -49 -20 -59
40 -39 316 -176 373 -187 14 -2 23 9 39 49 12 28 24 54 27 57 2 3 38 -3 79
-13 41 -11 88 -22 104 -25 28 -7 28 -7 22 -65 -6 -56 -6 -59 17 -65 45 -11
273 -17 357 -9 95 9 89 2 79 96 l-4 39 110 28 c61 15 110 27 111 26 0 0 10
-26 21 -56 12 -32 27 -56 37 -58 22 -5 245 103 336 162 l71 46 -35 49 c-20 27
-36 52 -36 56 0 7 79 81 127 118 l25 20 43 -43 c39 -38 46 -42 61 -29 50 42
244 324 244 355 0 7 -22 26 -50 43 -27 17 -50 34 -50 38 0 15 63 163 70 163 4
0 29 -7 56 -15 27 -8 52 -15 55 -15 18 0 69 288 69 388 l0 62 -60 0 -60 0 -1
38 c0 20 -2 63 -5 94 l-6 57 50 7 c78 10 77 8 52 120 -23 99 -85 292 -99 307
-4 4 -31 -1 -60 -13 -28 -11 -56 -20 -60 -20 -7 0 -64 98 -89 151 -1 4 20 21
48 39 27 18 50 36 50 40 0 17 -141 188 -210 255 l-72 70 -41 -46 -42 -47 -70
50 c-38 27 -72 53 -73 59 -2 5 8 29 22 53 14 25 26 47 26 50 0 19 -361 176
-405 176 -8 0 -20 -23 -30 -55 -8 -30 -19 -55 -23 -55 -4 0 -45 7 -91 17 l-83
16 4 58 c4 52 2 58 -16 63 -22 6 -280 6 -306 0z m365 -749 c233 -77 416 -255
499 -484 125 -346 -35 -734 -374 -910 -118 -62 -213 -85 -350 -85 -138 1 -233
24 -354 87 -107 54 -254 199 -308 302 -118 224 -122 478 -12 698 51 101 84
146 168 224 108 101 212 153 401 197 11 3 72 3 135 2 92 -3 132 -9 195 -31z"/>
<path d="M7290 3970 l0 -1370 318 2 317 3 0 368 c-1 202 3 367 7 367 7 0 315
-351 523 -598 l120 -142 383 0 c210 0 382 3 382 6 0 13 -261 318 -639 747
l-254 289 60 61 c33 34 147 159 254 277 107 118 251 277 321 353 71 77 128
143 128 147 0 5 -159 9 -354 10 l-354 1 -128 -139 c-71 -76 -199 -215 -284
-310 -85 -95 -157 -172 -161 -172 -3 0 -5 331 -3 735 l2 735 -319 0 -319 0 0
-1370z"/>
<path d="M1140 5025 l0 -295 425 0 425 0 0 -1065 0 -1065 345 0 345 0 0 1065
0 1065 433 2 432 3 2 293 3 292 -1205 0 -1205 0 0 -295z"/>
<path d="M9843 4935 l-303 -29 -2 -211 c-2 -159 -6 -210 -15 -211 -7 -1 -62
-2 -123 -3 l-110 -1 0 -245 0 -245 110 -1 c61 -1 116 -2 123 -3 9 -1 13 -107
18 -476 4 -402 8 -483 22 -530 60 -197 179 -312 392 -377 93 -28 410 -25 518
5 61 17 152 51 204 77 1 0 -13 78 -32 172 -19 95 -37 195 -41 223 -6 47 -9 51
-28 45 -213 -62 -294 -59 -367 14 -56 55 -60 92 -57 496 l3 350 200 3 201 2
12 73 c6 39 25 148 42 241 16 93 27 172 24 175 -3 3 -112 6 -242 6 l-237 1 -5
239 -5 240 -302 -30z"/>
<path d="M4555 4525 c-118 -22 -215 -73 -300 -159 -38 -39 -82 -87 -96 -106
l-26 -35 -2 90 c-1 50 -4 108 -7 131 l-6 40 -193 3 c-106 1 -240 -1 -299 -5
l-106 -7 0 -938 0 -939 310 0 310 0 0 458 c0 468 6 552 40 657 40 120 143 217
273 257 90 27 259 22 356 -11 35 -12 65 -20 68 -17 3 3 30 120 60 262 36 168
51 260 45 266 -18 18 -185 56 -267 62 -51 3 -109 0 -160 -9z"/>
<path d="M5790 4529 c-204 -24 -422 -85 -572 -160 l-77 -39 15 -52 c63 -217
107 -339 119 -334 69 26 288 90 364 107 124 26 329 36 413 20 168 -33 234 -99
245 -247 3 -41 3 -74 1 -74 -3 0 -41 8 -84 17 -103 23 -482 25 -589 4 -373
-74 -569 -254 -611 -562 -3 -26 1 -86 10 -140 49 -289 254 -456 602 -490 264
-26 499 41 665 190 l56 50 23 -50 c32 -67 102 -131 176 -158 119 -45 322 -37
474 18 75 27 75 27 78 67 1 21 -1 111 -5 199 l-8 160 -55 -3 c-44 -3 -61 1
-80 16 l-25 20 -6 444 c-7 490 -9 508 -73 637 -100 198 -303 320 -599 360 -91
13 -348 12 -457 0z m429 -1129 c36 -6 69 -14 74 -17 6 -3 7 -39 4 -84 -6 -96
-36 -153 -105 -204 -77 -56 -159 -79 -283 -79 -99 0 -111 2 -165 30 -71 36
-104 85 -104 156 0 114 64 175 215 204 77 15 255 12 364 -6z"/>
<path d="M15855 4514 c-62 -10 -148 -36 -202 -60 -68 -30 -201 -117 -265 -174
-27 -23 -48 -39 -48 -35 0 3 14 60 30 125 17 65 30 121 30 124 0 3 -146 6
-324 6 l-323 0 -99 -182 c-221 -410 -291 -562 -349 -758 -36 -120 -115 -456
-169 -715 -25 -121 -48 -230 -51 -242 l-5 -23 349 0 c283 0 350 3 354 13 3 8
8 39 12 70 8 62 15 69 37 36 12 -18 18 -20 35 -11 17 9 24 7 45 -16 49 -54 52
-60 37 -78 -12 -14 -9 -20 16 -41 17 -13 50 -36 74 -50 l44 -27 16 21 17 20
52 -21 c38 -15 51 -25 46 -36 -3 -8 -8 -20 -10 -26 -5 -11 60 -29 149 -40 46
-7 47 -6 47 20 0 24 3 26 44 26 24 0 51 2 59 5 9 4 17 -4 23 -24 l9 -29 88 22
c99 25 114 35 98 63 -9 18 -4 23 39 43 47 22 51 22 69 6 18 -16 21 -14 85 40
67 57 75 71 54 92 -9 9 -7 20 8 47 19 36 28 42 39 25 13 -22 32 -7 63 49 36
66 37 71 19 71 -27 0 -35 20 -21 58 10 31 17 37 37 34 23 -2 26 3 36 48 6 28
11 70 11 94 0 40 -2 43 -24 39 -26 -5 -36 15 -36 75 0 26 5 34 26 42 23 9 25
14 19 43 -4 17 -19 60 -32 94 -23 57 -27 62 -45 52 -27 -15 -40 -7 -63 34 -18
34 -18 37 -2 55 9 10 17 22 17 27 0 10 -65 82 -104 114 l-29 25 -18 -23 -18
-22 -45 26 c-45 27 -46 27 -31 55 l15 29 -56 21 c-31 11 -76 23 -99 27 -37 5
-43 3 -48 -16 -9 -34 -97 -25 -97 10 0 17 -5 18 -42 13 -72 -10 -116 -24 -133
-40 -9 -9 -36 -22 -61 -30 -80 -24 -205 -133 -269 -234 -40 -63 -75 -166 -75
-223 0 -78 29 -115 101 -131 25 -5 27 -3 33 39 11 70 61 158 122 214 94 86
221 118 344 87 117 -30 211 -106 266 -214 26 -52 29 -67 29 -157 0 -93 -2
-105 -33 -167 -41 -85 -128 -167 -209 -199 -87 -34 -217 -33 -295 3 -32 15
-73 39 -92 53 -39 29 -98 113 -113 160 -9 27 -15 31 -66 37 -221 28 -289 240
-161 505 74 154 210 285 374 361 121 56 175 67 320 66 110 -1 136 -5 218 -32
109 -35 200 -87 297 -169 l71 -60 26 61 c14 34 82 192 152 353 69 161 126 296
126 301 0 12 -167 90 -232 108 -53 15 -276 27 -333 18z"/>
</g>

<!-- Red overlay copy of the trailing "R", clipped to just the tire circle (see defs above)
     sits on top of the black original so only the tire shows red, the rest of the letter
     stays black underneath. -->
<g clip-path="url(#tire-r-clip)">
<g transform="translate(0.000000,887.000000) scale(0.100000,-0.100000)"
fill="#B91C1C" stroke="none">
<path d="M15855 4514 c-62 -10 -148 -36 -202 -60 -68 -30 -201 -117 -265 -174
-27 -23 -48 -39 -48 -35 0 3 14 60 30 125 17 65 30 121 30 124 0 3 -146 6
-324 6 l-323 0 -99 -182 c-221 -410 -291 -562 -349 -758 -36 -120 -115 -456
-169 -715 -25 -121 -48 -230 -51 -242 l-5 -23 349 0 c283 0 350 3 354 13 3 8
8 39 12 70 8 62 15 69 37 36 12 -18 18 -20 35 -11 17 9 24 7 45 -16 49 -54 52
-60 37 -78 -12 -14 -9 -20 16 -41 17 -13 50 -36 74 -50 l44 -27 16 21 17 20
52 -21 c38 -15 51 -25 46 -36 -3 -8 -8 -20 -10 -26 -5 -11 60 -29 149 -40 46
-7 47 -6 47 20 0 24 3 26 44 26 24 0 51 2 59 5 9 4 17 -4 23 -24 l9 -29 88 22
c99 25 114 35 98 63 -9 18 -4 23 39 43 47 22 51 22 69 6 18 -16 21 -14 85 40
67 57 75 71 54 92 -9 9 -7 20 8 47 19 36 28 42 39 25 13 -22 32 -7 63 49 36
66 37 71 19 71 -27 0 -35 20 -21 58 10 31 17 37 37 34 23 -2 26 3 36 48 6 28
11 70 11 94 0 40 -2 43 -24 39 -26 -5 -36 15 -36 75 0 26 5 34 26 42 23 9 25
14 19 43 -4 17 -19 60 -32 94 -23 57 -27 62 -45 52 -27 -15 -40 -7 -63 34 -18
34 -18 37 -2 55 9 10 17 22 17 27 0 10 -65 82 -104 114 l-29 25 -18 -23 -18
-22 -45 26 c-45 27 -46 27 -31 55 l15 29 -56 21 c-31 11 -76 23 -99 27 -37 5
-43 3 -48 -16 -9 -34 -97 -25 -97 10 0 17 -5 18 -42 13 -72 -10 -116 -24 -133
-40 -9 -9 -36 -22 -61 -30 -80 -24 -205 -133 -269 -234 -40 -63 -75 -166 -75
-223 0 -78 29 -115 101 -131 25 -5 27 -3 33 39 11 70 61 158 122 214 94 86
221 118 344 87 117 -30 211 -106 266 -214 26 -52 29 -67 29 -157 0 -93 -2
-105 -33 -167 -41 -85 -128 -167 -209 -199 -87 -34 -217 -33 -295 3 -32 15
-73 39 -92 53 -39 29 -98 113 -113 160 -9 27 -15 31 -66 37 -221 28 -289 240
-161 505 74 154 210 285 374 361 121 56 175 67 320 66 110 -1 136 -5 218 -32
109 -35 200 -87 297 -169 l71 -60 26 61 c14 34 82 192 152 353 69 161 126 296
126 301 0 12 -167 90 -232 108 -53 15 -276 27 -333 18z"/>
</g>
</g>
</svg>
